<?xml version="1.0" encoding="utf-8"?>
<!-- Generator: Adobe Illustrator 19.0.0, SVG Export Plug-In . SVG Version: 6.00 Build 0)  -->
<svg version="1.1" id="Layer_1" xmlns="http://www.w3.org/2000/svg" xmlns:xlink="http://www.w3.org/1999/xlink" x="0px" y="0px"
	 viewBox="-192 353.3 225.5 86.7" style="enable-background:new -192 353.3 225.5 86.7;" xml:space="preserve">
<style type="text/css">
	.st0{fill:#FFFFFF;}
	.st1{fill:url(#SVGID_1_);}
	.st2{fill:url(#SVGID_2_);}
	.st3{fill:url(#SVGID_3_);}
	.st4{fill:url(#SVGID_4_);}
	.st5{opacity:0.7;fill:url(#SVGID_5_);enable-background:new    ;}
	.st6{opacity:0.7;fill:url(#SVGID_6_);enable-background:new    ;}
	.st7{opacity:0.7;fill:url(#SVGID_7_);enable-background:new    ;}
	.st8{opacity:0.7;fill:url(#SVGID_10_);enable-background:new    ;}
	.st9{opacity:0.74;fill:#FFFFFF;enable-background:new    ;}
	.st10{opacity:0.4;fill:#FFFFFF;enable-background:new    ;}
	.st11{opacity:0.45;fill:url(#SVGID_11_);enable-background:new    ;}
	.st12{opacity:0.36;fill:url(#SVGID_12_);enable-background:new    ;}
	.st13{fill:#8C99E0;}
	.st14{opacity:0.45;fill:url(#SVGID_13_);enable-background:new    ;}
	.st15{opacity:0.36;fill:url(#SVGID_14_);enable-background:new    ;}
	.st16{opacity:0.5;}
	.st17{opacity:0.45;fill:url(#SVGID_15_);enable-background:new    ;}
	.st18{opacity:0.36;fill:url(#SVGID_16_);enable-background:new    ;}
	.st19{opacity:0.45;fill:url(#SVGID_17_);enable-background:new    ;}
	.st20{opacity:0.36;fill:url(#SVGID_18_);enable-background:new    ;}
	.st21{opacity:0.35;fill:#FF7690;enable-background:new    ;}
	.st22{opacity:0.3;fill:url(#SVGID_19_);enable-background:new    ;}
	.st23{opacity:0.25;fill:#FF7690;enable-background:new    ;}
	.st24{opacity:0.2;fill:url(#SVGID_20_);enable-background:new    ;}
	.st25{opacity:0.2;fill:url(#SVGID_21_);enable-background:new    ;}
	.st26{opacity:0.2;fill:url(#SVGID_22_);enable-background:new    ;}
	.st27{opacity:0.35;fill:url(#SVGID_23_);enable-background:new    ;}
	.st28{opacity:0.47;fill:url(#SVGID_24_);enable-background:new    ;}
	.st29{opacity:0.63;clip-path:url(#SVGID_26_);}
	.st30{fill:url(#SVGID_27_);}
	.st31{opacity:0.8;}
	.st32{opacity:0.63;clip-path:url(#SVGID_31_);}
	.st33{opacity:0.6;enable-background:new    ;}
	.st34{opacity:0.63;clip-path:url(#SVGID_35_);}
	.st35{fill:url(#SVGID_36_);}
	.st36{opacity:0.4;}
	.st37{opacity:0.63;clip-path:url(#SVGID_41_);}
	.st38{opacity:0.3;enable-background:new    ;}
	.st39{opacity:0.63;clip-path:url(#SVGID_45_);}
	.st40{fill:url(#SVGID_46_);}
	.st41{opacity:0.63;clip-path:url(#SVGID_51_);}
	.st42{opacity:0.63;clip-path:url(#SVGID_55_);}
	.st43{fill:url(#SVGID_56_);}
	.st44{opacity:0.63;clip-path:url(#SVGID_60_);}
	.st45{fill:#667AD3;}
	.st46{fill:#3F4F63;}
</style>
<path class="st0" d="M-160.5,427.1c-2.6,0-4.9-1.3-6.9-3.9c-1.4-1.9-2.5-4.3-3.6-6.7c-1.1-2.3-2.2-4.8-3.3-5.9s-3.6-2.3-6-3.3
	c-2.3-1.1-4.8-2.2-6.7-3.6c-2.6-1.9-3.9-4.3-3.9-6.9s1.3-4.8,3.9-6.9c1.9-1.4,4.3-2.5,6.7-3.6s4.8-2.2,6-3.3s2.3-3.6,3.3-5.9
	c1.1-2.3,2.2-4.8,3.6-6.7c1.9-2.6,4.3-3.9,6.9-3.9s4.9,1.3,6.9,3.9c1.4,1.9,2.5,4.3,3.6,6.7s2.2,4.8,3.3,5.9s3.6,2.3,6,3.3
	c2.3,1.1,4.8,2.2,6.7,3.6c2.6,1.9,3.9,4.3,3.9,6.9s-1.3,4.8-3.9,6.9c-1.9,1.4-4.3,2.5-6.7,3.6c-2.3,1.1-4.8,2.2-6,3.3
	s-2.3,3.6-3.3,5.9c-1.1,2.3-2.2,4.8-3.6,6.7C-155.6,425.8-157.9,427.1-160.5,427.1z M-160.5,371.6c-2.2,0-4,4-5.6,7.5
	c-1.3,2.9-2.6,5.7-4.4,7.5c-1.8,1.8-4.6,3.1-7.5,4.4c-3.5,1.6-7.5,3.4-7.5,5.6s4,4,7.5,5.6c2.9,1.3,5.7,2.6,7.5,4.4s3.1,4.6,4.4,7.5
	c1.6,3.5,3.4,7.5,5.6,7.5c2.2,0,4-4,5.6-7.5c1.3-2.9,2.6-5.7,4.4-7.5c1.8-1.8,4.6-3.1,7.5-4.4c3.5-1.6,7.5-3.4,7.5-5.6s-4-4-7.5-5.6
	c-2.9-1.3-5.7-2.6-7.5-4.4s-3.1-4.6-4.4-7.5C-156.5,375.6-158.3,371.6-160.5,371.6z"/>
<g>
	
		<linearGradient id="SVGID_1_" gradientUnits="userSpaceOnUse" x1="-398.2036" y1="977.2004" x2="-398.2036" y2="953.329" gradientTransform="matrix(0.7071 -0.7071 0.7071 0.7071 -571.6795 -583.269)">
		<stop  offset="0" style="stop-color:#2C394C"/>
		<stop  offset="1" style="stop-color:#445B72"/>
	</linearGradient>
	<path class="st1" d="M-180.3,386.3c0.8-0.3,1.6-0.8,2.3-1.1c-0.8-2.7-1.3-5.1-0.3-6.2c1.5-1.5,5.7,0,9.3,1.3c3,1.1,5.8,2.2,8.4,2.2
		c2,0,4.2-0.7,6.4-1.4c-0.3-0.6-0.6-1.3-0.8-1.9c-0.4-1-0.9-2-1.4-2.9c-1.6,0.6-3.1,1-4.2,1c-1.7,0-4.2-0.9-6.6-1.8
		c-2.4-0.9-4.9-1.8-7.3-2.2c-3.3-0.5-5.8,0.2-7.6,2s-2.5,4.4-2,7.6c0.3,1.5,0.7,3.1,1.2,4.6C-182,387.1-181.1,386.7-180.3,386.3z"/>
	
		<linearGradient id="SVGID_2_" gradientUnits="userSpaceOnUse" x1="-420.6544" y1="992.9464" x2="-420.6544" y2="966.2175" gradientTransform="matrix(0.7071 -0.7071 0.7071 0.7071 -571.6795 -583.269)">
		<stop  offset="0" style="stop-color:#2C394C"/>
		<stop  offset="1" style="stop-color:#445B72"/>
	</linearGradient>
	<path class="st2" d="M-170.9,416.4c-0.3-0.8-0.7-1.5-1.1-2.3c-2.7,0.9-5.2,1.4-6.3,0.3c-1.5-1.5,0-5.7,1.3-9.3
		c1.1-3,2.2-5.8,2.2-8.4c0-2-0.7-4.2-1.4-6.5c-0.7,0.3-1.3,0.6-1.9,0.9c-1,0.4-2,0.9-2.9,1.3c0.6,1.6,1,3.1,1,4.3
		c0,1.7-0.9,4.2-1.8,6.6c-0.9,2.4-1.8,4.9-2.2,7.3c-0.5,3.3,0.2,5.8,2,7.6c1.8,1.8,4.4,2.5,7.6,2c1.5-0.3,3.1-0.7,4.7-1.3
		C-170.2,418.2-170.5,417.3-170.9,416.4z"/>
	
		<linearGradient id="SVGID_3_" gradientUnits="userSpaceOnUse" x1="-383.7418" y1="1001.1899" x2="-383.7418" y2="974.463" gradientTransform="matrix(0.7071 -0.7071 0.7071 0.7071 -571.6795 -583.269)">
		<stop  offset="0" style="stop-color:#2C394C"/>
		<stop  offset="1" style="stop-color:#445B72"/>
	</linearGradient>
	<path class="st3" d="M-146.6,373.1c-1.5,0.3-3.1,0.7-4.7,1.3c0.4,0.8,0.8,1.7,1.2,2.6c0.3,0.8,0.7,1.5,1.1,2.3
		c2.7-0.9,5.2-1.4,6.3-0.3c1.5,1.5,0,5.7-1.3,9.3c-1.1,3-2.2,5.8-2.2,8.4c0,2,0.7,4.2,1.4,6.5c0.7-0.3,1.3-0.6,1.9-0.9
		c1-0.4,2-0.9,2.9-1.3c-0.6-1.6-1-3.1-1-4.3c0-1.7,0.9-4.2,1.8-6.6c0.9-2.4,1.8-4.9,2.2-7.3c0.5-3.3-0.2-5.8-2-7.6
		C-140.8,373.3-143.4,372.6-146.6,373.1z"/>
	
		<linearGradient id="SVGID_4_" gradientUnits="userSpaceOnUse" x1="-406.1939" y1="1014.071" x2="-406.1939" y2="990.1996" gradientTransform="matrix(0.7071 -0.7071 0.7071 0.7071 -571.6795 -583.269)">
		<stop  offset="0" style="stop-color:#2C394C"/>
		<stop  offset="1" style="stop-color:#445B72"/>
	</linearGradient>
	<path class="st4" d="M-140.7,407.1c-0.8,0.3-1.6,0.8-2.3,1.1c0.8,2.7,1.3,5.1,0.3,6.2c-1.5,1.5-5.7,0-9.3-1.3
		c-3-1.1-5.8-2.2-8.4-2.2c-2,0-4.2,0.7-6.4,1.4c0.3,0.6,0.6,1.3,0.8,1.9c0.4,1,0.9,2,1.4,2.9c1.6-0.6,3.1-1,4.2-1
		c1.7,0,4.2,0.9,6.6,1.8c2.4,0.9,4.9,1.8,7.3,2.2c3.3,0.5,5.8-0.2,7.6-2s2.5-4.4,2-7.6c-0.3-1.5-0.7-3.1-1.2-4.6
		C-139,406.3-139.9,406.7-140.7,407.1z"/>
</g>
<g>
	
		<linearGradient id="SVGID_5_" gradientUnits="userSpaceOnUse" x1="-402.4853" y1="1010.2224" x2="-395.6189" y2="1003.356" gradientTransform="matrix(0.7071 -0.7071 0.7071 0.7071 -571.6795 -583.269)">
		<stop  offset="0" style="stop-color:#242F3D"/>
		<stop  offset="1" style="stop-color:#FFFFFF;stop-opacity:0"/>
	</linearGradient>
	<path class="st5" d="M-147.1,414.7c0,0,10.5,3.3,10.3-2.5c0,0,0.1-1.8-1.3-6.3l-4.8,2.3c0,0,1.3,3.8,0.8,5.3
		C-142.8,414.9-144,415.5-147.1,414.7z"/>
	
		<linearGradient id="SVGID_6_" gradientUnits="userSpaceOnUse" x1="-1536.6765" y1="1039.2598" x2="-1529.8102" y2="1032.3933" gradientTransform="matrix(-0.7071 -0.7071 0.7071 -0.7071 -1962.9879 26.4248)">
		<stop  offset="0" style="stop-color:#242F3D"/>
		<stop  offset="1" style="stop-color:#FFFFFF;stop-opacity:0"/>
	</linearGradient>
	<path class="st6" d="M-142.5,383.3c0,0,3.3-10.5-2.5-10.3c0,0-1.8-0.1-6.3,1.3l2.3,4.8c0,0,3.8-1.3,5.3-0.8
		C-142.3,379-141.7,380.2-142.5,383.3z"/>
	
		<linearGradient id="SVGID_7_" gradientUnits="userSpaceOnUse" x1="-1565.7139" y1="-94.932" x2="-1558.8475" y2="-101.7984" gradientTransform="matrix(-0.7071 0.7071 -0.7071 -0.7071 -1353.2941 1417.7333)">
		<stop  offset="0" style="stop-color:#242F3D"/>
		<stop  offset="1" style="stop-color:#FFFFFF;stop-opacity:0"/>
	</linearGradient>
	<path class="st7" d="M-173.9,378.7c0,0-10.5-3.3-10.3,2.5c0,0-0.1,1.8,1.3,6.3l4.8-2.3c0,0-1.3-3.8-0.8-5.3
		C-178.2,378.5-177,377.9-173.9,378.7z"/>
	
		<linearGradient id="SVGID_10_" gradientUnits="userSpaceOnUse" x1="-431.5223" y1="-123.9691" x2="-424.6559" y2="-130.8355" gradientTransform="matrix(0.7071 0.7071 -0.7071 0.7071 38.0143 808.0394)">
		<stop  offset="0" style="stop-color:#242F3D"/>
		<stop  offset="1" style="stop-color:#FFFFFF;stop-opacity:0"/>
	</linearGradient>
	<path class="st8" d="M-178.5,410.1c0,0-3.3,10.5,2.5,10.3c0,0,1.8,0.1,6.3-1.3l-2.3-4.8c0,0-3.8,1.3-5.3,0.8
		C-178.7,414.4-179.3,413.2-178.5,410.1z"/>
</g>
<g>
	<path class="st9" d="M-163.8,418.9c0,0,5.1,9.8,9,5.5c0,0,1.3-1.3,3.5-5.4l-5-1.8c0,0-1.8,3.7-3.2,4.3S-162.1,421.7-163.8,418.9z"
		/>
	<path class="st9" d="M-138.3,400c0,0,9.8-5.1,5.5-9c0,0-1.3-1.3-5.4-3.5l-1.8,5c0,0,3.7,1.8,4.3,3.2
		C-135.1,397.1-135.5,398.3-138.3,400z"/>
	<path class="st10" d="M-157.2,374.5c0,0-5.1-9.8-9-5.5c0,0-1.3,1.3-3.5,5.4l5,1.8c0,0,1.8-3.7,3.2-4.3
		C-160.1,371.3-158.9,371.7-157.2,374.5z"/>
	<path class="st10" d="M-182.7,393.4c0,0-9.8,5.1-5.5,9c0,0,1.3,1.3,5.4,3.5l1.8-5c0,0-3.7-1.8-4.3-3.2
		C-185.9,396.3-185.5,395.1-182.7,393.4z"/>
</g>
<g>
	
		<linearGradient id="SVGID_11_" gradientUnits="userSpaceOnUse" x1="-388.0565" y1="1001.1808" x2="-388.0565" y2="990.1495" gradientTransform="matrix(0.7071 -0.7071 0.7071 0.7071 -571.6795 -583.269)">
		<stop  offset="0" style="stop-color:#242F3D"/>
		<stop  offset="0.1224" style="stop-color:#49525D;stop-opacity:0.8776"/>
		<stop  offset="0.3568" style="stop-color:#898F96;stop-opacity:0.6432"/>
		<stop  offset="0.5703" style="stop-color:#BCBFC3;stop-opacity:0.4297"/>
		<stop  offset="0.7553" style="stop-color:#E0E2E4;stop-opacity:0.2447"/>
		<stop  offset="0.9048" style="stop-color:#F7F7F8;stop-opacity:9.520561e-002"/>
		<stop  offset="1" style="stop-color:#FFFFFF;stop-opacity:0"/>
	</linearGradient>
	<path class="st11" d="M-144.8,390.1c-0.8,2.3-1.5,4.5-1.5,6.5s0.7,4.2,1.4,6.5c0.7-0.3,1.3-0.6,1.9-0.9c1-0.4,2-0.9,2.9-1.3
		c-0.6-1.6-1-3.1-1-4.3c0-1.7,0.9-4.2,1.8-6.6c0.3-0.7,0.5-1.3,0.8-2.1L-144.8,390.1z"/>
	
		<linearGradient id="SVGID_12_" gradientUnits="userSpaceOnUse" x1="-397.7086" y1="1013.7866" x2="-397.7086" y2="1004.191" gradientTransform="matrix(0.7071 -0.7071 0.7071 0.7071 -571.6795 -583.269)">
		<stop  offset="0" style="stop-color:#FFFFFF;stop-opacity:0"/>
		<stop  offset="9.520561e-002" style="stop-color:#F7F7F8;stop-opacity:9.520561e-002"/>
		<stop  offset="0.2447" style="stop-color:#E0E2E4;stop-opacity:0.2447"/>
		<stop  offset="0.4297" style="stop-color:#BCBFC3;stop-opacity:0.4297"/>
		<stop  offset="0.6432" style="stop-color:#898F96;stop-opacity:0.6432"/>
		<stop  offset="0.8776" style="stop-color:#49525D;stop-opacity:0.8776"/>
		<stop  offset="1" style="stop-color:#242F3D"/>
	</linearGradient>
	<path class="st12" d="M-140.7,407.1c-0.8,0.3-1.6,0.8-2.3,1.1c0.8,2.7,1.3,5.1,0.3,6.2c-0.1,0.1-0.3,0.2-0.3,0.3l5.3,1.8
		c0.9-1.6,1.2-3.6,0.8-6c-0.3-1.5-0.7-3.1-1.2-4.6C-139,406.3-139.9,406.7-140.7,407.1z"/>
</g>
<g>
	<g>
		<g>
			<path class="st13" d="M-154.1,381c1.1,2.3,2.2,4.3,3.6,5.7c1.4,1.4,3.4,2.5,5.6,3.6c0.3-0.7,0.5-1.3,0.8-2c0.3-1,0.8-2,1.1-3
				c-1.5-0.8-2.9-1.5-3.7-2.3c-1.2-1.2-2.3-3.6-3.3-6c-0.3-0.7-0.6-1.3-0.9-2L-154.1,381z"/>
			<path class="st13" d="M-139.1,390.1c-0.3,0.8-0.6,1.6-0.9,2.4c2.5,1.3,4.6,2.7,4.6,4.2c0,0.2,0,0.3-0.1,0.5l5.1-2.5
				c-0.5-1.8-1.8-3.3-3.7-4.8c-1.3-0.9-2.7-1.7-4.1-2.4C-138.5,388.3-138.8,389.2-139.1,390.1z"/>
		</g>
	</g>
</g>
<g>
	
		<linearGradient id="SVGID_13_" gradientUnits="userSpaceOnUse" x1="-1522.248" y1="1030.2179" x2="-1522.248" y2="1019.1866" gradientTransform="matrix(-0.7071 -0.7071 0.7071 -0.7071 -1962.9879 26.4248)">
		<stop  offset="0" style="stop-color:#242F3D"/>
		<stop  offset="0.1224" style="stop-color:#49525D;stop-opacity:0.8776"/>
		<stop  offset="0.3568" style="stop-color:#898F96;stop-opacity:0.6432"/>
		<stop  offset="0.5703" style="stop-color:#BCBFC3;stop-opacity:0.4297"/>
		<stop  offset="0.7553" style="stop-color:#E0E2E4;stop-opacity:0.2447"/>
		<stop  offset="0.9048" style="stop-color:#F7F7F8;stop-opacity:9.520561e-002"/>
		<stop  offset="1" style="stop-color:#FFFFFF;stop-opacity:0"/>
	</linearGradient>
	<path class="st14" d="M-167.1,381c2.3,0.8,4.5,1.5,6.5,1.5s4.2-0.7,6.5-1.4c-0.3-0.7-0.6-1.3-0.9-1.9c-0.4-1-0.9-2-1.3-2.9
		c-1.6,0.6-3.1,1-4.3,1c-1.7,0-4.2-0.9-6.6-1.8c-0.7-0.3-1.3-0.5-2.1-0.8L-167.1,381z"/>
	
		<linearGradient id="SVGID_14_" gradientUnits="userSpaceOnUse" x1="-1531.9001" y1="1042.8235" x2="-1531.9001" y2="1033.2281" gradientTransform="matrix(-0.7071 -0.7071 0.7071 -0.7071 -1962.9879 26.4248)">
		<stop  offset="0" style="stop-color:#FFFFFF;stop-opacity:0"/>
		<stop  offset="9.520561e-002" style="stop-color:#F7F7F8;stop-opacity:9.520561e-002"/>
		<stop  offset="0.2447" style="stop-color:#E0E2E4;stop-opacity:0.2447"/>
		<stop  offset="0.4297" style="stop-color:#BCBFC3;stop-opacity:0.4297"/>
		<stop  offset="0.6432" style="stop-color:#898F96;stop-opacity:0.6432"/>
		<stop  offset="0.8776" style="stop-color:#49525D;stop-opacity:0.8776"/>
		<stop  offset="1" style="stop-color:#242F3D"/>
	</linearGradient>
	<path class="st15" d="M-150.1,376.9c0.3,0.8,0.8,1.6,1.1,2.3c2.7-0.8,5.1-1.3,6.2-0.3c0.1,0.1,0.2,0.3,0.3,0.3l1.8-5.3
		c-1.6-0.9-3.6-1.2-6-0.8c-1.5,0.3-3.1,0.7-4.6,1.2C-150.9,375.2-150.5,376.1-150.1,376.9z"/>
</g>
<g class="st16">
	<g>
		<g>
			<path class="st13" d="M-176.2,390.3c2.3-1.1,4.3-2.2,5.7-3.6s2.5-3.4,3.6-5.6c-0.7-0.3-1.3-0.5-2-0.8c-1-0.3-2-0.8-3-1.1
				c-0.8,1.5-1.5,2.9-2.3,3.7c-1.2,1.2-3.6,2.3-6,3.3c-0.7,0.3-1.3,0.6-2,0.9L-176.2,390.3z"/>
			<path class="st13" d="M-167.1,375.3c0.8,0.3,1.6,0.6,2.4,0.9c1.3-2.5,2.7-4.6,4.2-4.6c0.2,0,0.3,0,0.5,0.1l-2.5-5.1
				c-1.8,0.5-3.3,1.8-4.8,3.7c-0.9,1.3-1.7,2.7-2.4,4.1C-168.9,374.7-168,375-167.1,375.3z"/>
		</g>
	</g>
</g>
<g class="st16">
	
		<linearGradient id="SVGID_15_" gradientUnits="userSpaceOnUse" x1="-1551.2852" y1="-103.9737" x2="-1551.2852" y2="-115.0048" gradientTransform="matrix(-0.7071 0.7071 -0.7071 -0.7071 -1353.2941 1417.7333)">
		<stop  offset="0" style="stop-color:#242F3D"/>
		<stop  offset="0.1224" style="stop-color:#49525D;stop-opacity:0.8776"/>
		<stop  offset="0.3568" style="stop-color:#898F96;stop-opacity:0.6432"/>
		<stop  offset="0.5703" style="stop-color:#BCBFC3;stop-opacity:0.4297"/>
		<stop  offset="0.7553" style="stop-color:#E0E2E4;stop-opacity:0.2447"/>
		<stop  offset="0.9048" style="stop-color:#F7F7F8;stop-opacity:9.520561e-002"/>
		<stop  offset="1" style="stop-color:#FFFFFF;stop-opacity:0"/>
	</linearGradient>
	<path class="st17" d="M-176.2,403.3c0.8-2.3,1.5-4.5,1.5-6.5s-0.7-4.2-1.4-6.5c-0.7,0.3-1.3,0.6-1.9,0.9c-1,0.4-2,0.9-2.9,1.3
		c0.6,1.6,1,3.1,1,4.3c0,1.7-0.9,4.2-1.8,6.6c-0.3,0.7-0.5,1.3-0.8,2.1L-176.2,403.3z"/>
	
		<linearGradient id="SVGID_16_" gradientUnits="userSpaceOnUse" x1="-1560.9373" y1="-91.3679" x2="-1560.9373" y2="-100.9634" gradientTransform="matrix(-0.7071 0.7071 -0.7071 -0.7071 -1353.2941 1417.7333)">
		<stop  offset="0" style="stop-color:#FFFFFF;stop-opacity:0"/>
		<stop  offset="9.520561e-002" style="stop-color:#F7F7F8;stop-opacity:9.520561e-002"/>
		<stop  offset="0.2447" style="stop-color:#E0E2E4;stop-opacity:0.2447"/>
		<stop  offset="0.4297" style="stop-color:#BCBFC3;stop-opacity:0.4297"/>
		<stop  offset="0.6432" style="stop-color:#898F96;stop-opacity:0.6432"/>
		<stop  offset="0.8776" style="stop-color:#49525D;stop-opacity:0.8776"/>
		<stop  offset="1" style="stop-color:#242F3D"/>
	</linearGradient>
	<path class="st18" d="M-180.3,386.3c0.8-0.3,1.6-0.8,2.3-1.1c-0.8-2.7-1.3-5.1-0.3-6.2c0.1-0.1,0.3-0.2,0.3-0.3l-5.3-1.8
		c-0.9,1.6-1.2,3.6-0.8,6c0.3,1.5,0.7,3.1,1.2,4.6C-182,387.1-181.1,386.7-180.3,386.3z"/>
</g>
<g>
	<g>
		<g>
			<path class="st13" d="M-166.9,412.4c-1.1-2.3-2.2-4.3-3.6-5.7c-1.4-1.4-3.4-2.5-5.6-3.6c-0.3,0.7-0.5,1.3-0.8,2
				c-0.3,1-0.8,2-1.1,3c1.5,0.8,2.9,1.5,3.7,2.3c1.2,1.2,2.3,3.6,3.3,6c0.3,0.7,0.6,1.3,0.9,2L-166.9,412.4z"/>
			<path class="st13" d="M-181.9,403.3c0.3-0.8,0.6-1.6,0.9-2.4c-2.5-1.3-4.6-2.7-4.6-4.2c0-0.2,0-0.3,0.1-0.5l-5.1,2.5
				c0.5,1.8,1.8,3.3,3.7,4.8c1.3,0.9,2.7,1.7,4.1,2.4C-182.5,405.1-182.2,404.2-181.9,403.3z"/>
		</g>
	</g>
</g>
<g>
	
		<linearGradient id="SVGID_17_" gradientUnits="userSpaceOnUse" x1="-417.0936" y1="-133.0107" x2="-417.0936" y2="-144.042" gradientTransform="matrix(0.7071 0.7071 -0.7071 0.7071 38.0143 808.0394)">
		<stop  offset="0" style="stop-color:#242F3D"/>
		<stop  offset="0.1224" style="stop-color:#49525D;stop-opacity:0.8776"/>
		<stop  offset="0.3568" style="stop-color:#898F96;stop-opacity:0.6432"/>
		<stop  offset="0.5703" style="stop-color:#BCBFC3;stop-opacity:0.4297"/>
		<stop  offset="0.7553" style="stop-color:#E0E2E4;stop-opacity:0.2447"/>
		<stop  offset="0.9048" style="stop-color:#F7F7F8;stop-opacity:9.520561e-002"/>
		<stop  offset="1" style="stop-color:#FFFFFF;stop-opacity:0"/>
	</linearGradient>
	<path class="st19" d="M-153.9,412.4c-2.3-0.8-4.5-1.5-6.5-1.5s-4.2,0.7-6.5,1.4c0.3,0.7,0.6,1.3,0.9,1.9c0.4,1,0.9,2,1.3,2.9
		c1.6-0.6,3.1-1,4.3-1c1.7,0,4.2,0.9,6.6,1.8c0.7,0.3,1.3,0.5,2.1,0.8L-153.9,412.4z"/>
	
		<linearGradient id="SVGID_18_" gradientUnits="userSpaceOnUse" x1="-426.7456" y1="-120.4051" x2="-426.7456" y2="-130.0005" gradientTransform="matrix(0.7071 0.7071 -0.7071 0.7071 38.0143 808.0394)">
		<stop  offset="0" style="stop-color:#FFFFFF;stop-opacity:0"/>
		<stop  offset="9.520561e-002" style="stop-color:#F7F7F8;stop-opacity:9.520561e-002"/>
		<stop  offset="0.2447" style="stop-color:#E0E2E4;stop-opacity:0.2447"/>
		<stop  offset="0.4297" style="stop-color:#BCBFC3;stop-opacity:0.4297"/>
		<stop  offset="0.6432" style="stop-color:#898F96;stop-opacity:0.6432"/>
		<stop  offset="0.8776" style="stop-color:#49525D;stop-opacity:0.8776"/>
		<stop  offset="1" style="stop-color:#242F3D"/>
	</linearGradient>
	<path class="st20" d="M-170.9,416.5c-0.3-0.8-0.8-1.6-1.1-2.3c-2.7,0.8-5.1,1.3-6.2,0.3c-0.1-0.1-0.2-0.3-0.3-0.3l-1.8,5.3
		c1.6,0.9,3.6,1.2,6,0.8c1.5-0.3,3.1-0.7,4.6-1.2C-170.1,418.2-170.5,417.3-170.9,416.5z"/>
</g>
<g>
	<g>
		<g>
			<path class="st13" d="M-144.8,403.1c-2.3,1.1-4.3,2.2-5.7,3.6s-2.5,3.4-3.6,5.6c0.7,0.3,1.3,0.5,2,0.8c1,0.3,2,0.8,3,1.1
				c0.8-1.5,1.5-2.9,2.3-3.7c1.2-1.2,3.6-2.3,6-3.3c0.7-0.3,1.3-0.6,2-0.9L-144.8,403.1z"/>
			<path class="st13" d="M-153.9,418.1c-0.8-0.3-1.6-0.6-2.4-0.9c-1.3,2.5-2.7,4.6-4.2,4.6c-0.2,0-0.3,0-0.5-0.1l2.5,5.1
				c1.8-0.5,3.3-1.8,4.8-3.7c0.9-1.3,1.7-2.7,2.4-4.1C-152.1,418.7-153,418.4-153.9,418.1z"/>
		</g>
	</g>
</g>
<path class="st21" d="M-188.2,402.5c-3.8-3.5,3.5-7.9,5.2-8.9c1.4-0.9,3.3-1.8,4.9-2.5c2.9-1.3,5.7-2.6,7.5-4.4l-3.8-3.8
	c-1.2,1.2-3.6,2.3-6,3.3c-2.3,1.1-4.8,2.2-6.7,3.6c-2.6,1.9-3.9,4.3-3.9,6.9C-190.9,398.9-190,400.8-188.2,402.5L-188.2,402.5z"/>
<linearGradient id="SVGID_19_" gradientUnits="userSpaceOnUse" x1="-1013.8029" y1="1210.6714" x2="-990.1157" y2="1210.6714" gradientTransform="matrix(0 -1 1 0 -1390 -593.4)">
	<stop  offset="0" style="stop-color:#FFFFFF"/>
	<stop  offset="0.797" style="stop-color:#FFFFFF;stop-opacity:0"/>
</linearGradient>
<path class="st22" d="M-176,420.3c-5.2,0.3-3.1-8-2.6-9.9c0.3-1.7,1.1-3.5,1.8-5.3c1.1-3,2.2-5.8,2.2-8.4h-5.3
	c0,1.7-0.9,4.2-1.8,6.6c-0.9,2.4-1.8,4.9-2.2,7.3c-0.5,3.3,0.2,5.8,2,7.6C-180.5,419.8-178.5,420.5-176,420.3L-176,420.3z"/>
<path class="st23" d="M-154.7,424.4c-3.5,3.8-7.9-3.5-8.9-5.2c-0.9-1.4-1.8-3.3-2.5-4.9c-1.3-2.9-2.6-5.7-4.4-7.5l-3.8,3.8
	c1.2,1.2,2.3,3.6,3.3,6c1.1,2.3,2.2,4.8,3.6,6.7c1.9,2.6,4.3,3.9,6.9,3.9C-158.3,427.1-156.4,426.2-154.7,424.4L-154.7,424.4z"/>
<linearGradient id="SVGID_20_" gradientUnits="userSpaceOnUse" x1="-1849.2029" y1="381.0714" x2="-1825.5156" y2="381.0714" gradientTransform="matrix(-1 0 0 -1 -1986 796.6)">
	<stop  offset="0" style="stop-color:#FFFFFF"/>
	<stop  offset="0.797" style="stop-color:#FFFFFF;stop-opacity:0"/>
</linearGradient>
<path class="st24" d="M-136.9,412.2c0.3,5.2-8,3.1-9.9,2.6c-1.7-0.3-3.5-1.1-5.3-1.8c-3-1.1-5.8-2.2-8.4-2.2v5.3
	c1.7,0,4.2,0.9,6.6,1.8s4.9,1.8,7.3,2.2c3.3,0.5,5.8-0.2,7.6-2C-137.4,416.7-136.7,414.7-136.9,412.2L-136.9,412.2z"/>
<linearGradient id="SVGID_21_" gradientUnits="userSpaceOnUse" x1="-1607.3373" y1="-208.5665" x2="-1583.6497" y2="-208.5665" gradientTransform="matrix(-0.7071 0.7071 -0.7071 -0.7071 -1414.3204 1382.469)">
	<stop  offset="0" style="stop-color:#FFFFFF"/>
	<stop  offset="0.797" style="stop-color:#FFFFFF;stop-opacity:0"/>
</linearGradient>
<path class="st25" d="M-132.8,390.9c3.8,3.5-3.5,7.9-5.2,8.9c-1.4,0.9-3.3,1.8-4.9,2.5c-2.9,1.3-5.7,2.6-7.5,4.4l3.8,3.8
	c1.2-1.2,3.6-2.3,6-3.3c2.3-1.1,4.8-2.2,6.7-3.6c2.6-1.9,3.9-4.3,3.9-6.9C-130.1,394.5-131,392.6-132.8,390.9L-132.8,390.9z"/>
<linearGradient id="SVGID_22_" gradientUnits="userSpaceOnUse" x1="-1019.6029" y1="-454.3286" x2="-995.9156" y2="-454.3286" gradientTransform="matrix(0 1 -1 0 -596 1392.6)">
	<stop  offset="0" style="stop-color:#FFFFFF"/>
	<stop  offset="0.797" style="stop-color:#FFFFFF;stop-opacity:0"/>
</linearGradient>
<path class="st26" d="M-145,373.1c5.2-0.3,3.1,8,2.6,9.9c-0.3,1.7-1.1,3.5-1.8,5.3c-1.1,3-2.2,5.8-2.2,8.4h5.3
	c0-1.7,0.9-4.2,1.8-6.6c0.9-2.4,1.8-4.9,2.2-7.3c0.5-3.3-0.2-5.8-2-7.6C-140.5,373.6-142.5,372.9-145,373.1L-145,373.1z"/>
<linearGradient id="SVGID_23_" gradientUnits="userSpaceOnUse" x1="-429.9932" y1="-212.6677" x2="-406.3056" y2="-212.6677" gradientTransform="matrix(0.7071 0.7071 -0.7071 0.7071 -10.131 820.9205)">
	<stop  offset="0" style="stop-color:#FFFFFF"/>
	<stop  offset="0.797" style="stop-color:#FFFFFF;stop-opacity:0"/>
</linearGradient>
<path class="st27" d="M-166.3,369c3.5-3.8,7.9,3.5,8.9,5.2c0.9,1.4,1.8,3.3,2.5,4.9c1.3,2.9,2.6,5.7,4.4,7.5l3.8-3.8
	c-1.2-1.2-2.3-3.6-3.3-6c-1.1-2.3-2.2-4.8-3.6-6.7c-1.9-2.6-4.3-3.9-6.9-3.9C-162.7,366.3-164.6,367.2-166.3,369L-166.3,369z"/>
<linearGradient id="SVGID_24_" gradientUnits="userSpaceOnUse" x1="-184.2028" y1="375.2714" x2="-160.5155" y2="375.2714" gradientTransform="matrix(1 0 0 1 0 2.6)">
	<stop  offset="0" style="stop-color:#FFFFFF"/>
	<stop  offset="0.797" style="stop-color:#FFFFFF;stop-opacity:0"/>
</linearGradient>
<path class="st28" d="M-184.1,381.2c-0.3-5.2,8-3.1,9.9-2.6c1.7,0.3,3.5,1.1,5.3,1.8c3,1.1,5.8,2.2,8.4,2.2v-5.3
	c-1.7,0-4.2-0.9-6.6-1.8s-4.9-1.8-7.3-2.2c-3.3-0.5-5.8,0.2-7.6,2C-183.6,376.7-184.3,378.7-184.1,381.2L-184.1,381.2z"/>
<g>
	<g>
		<g>
			<defs>
				<path id="SVGID_25_" d="M-184.1,381.2c-0.3-5.2,8-3.1,9.9-2.6c1.7,0.3,3.5,1.1,5.3,1.8c3,1.1,5.8,2.2,8.4,2.2v-5.3
					c-1.7,0-4.2-0.9-6.6-1.8s-4.9-1.8-7.3-2.2c-3.3-0.5-5.8,0.2-7.6,2C-183.6,376.7-184.3,378.7-184.1,381.2L-184.1,381.2z"/>
			</defs>
			<clipPath id="SVGID_26_">
				<use xlink:href="#SVGID_25_"  style="overflow:visible;"/>
			</clipPath>
			<g class="st29">
				
					<linearGradient id="SVGID_27_" gradientUnits="userSpaceOnUse" x1="-185.8445" y1="377.1359" x2="-160.5137" y2="377.1359" gradientTransform="matrix(1 0 0 1 0 2.6)">
					<stop  offset="0" style="stop-color:#FFFFFF"/>
					<stop  offset="1" style="stop-color:#FFFFFF;stop-opacity:0"/>
				</linearGradient>
				<path class="st30" d="M-184.2,381.2L-184.2,381.2L-184.2,381.2c-0.2-0.6-0.3-1.3-0.1-1.8c0.2-0.7,0.6-1.3,1.2-1.7
					s1.2-0.7,1.8-0.9c0.6-0.2,1.3-0.3,1.8-0.3c1.3-0.1,2.4-0.1,3.6,0.1c0.6,0.1,1.2,0.2,1.8,0.3l0.4,0.1l0.3,0.1l0.8,0.3
					c2.3,0.7,4.3,1.6,6.2,2.6c1,0.5,1.9,0.9,2.9,1.4s1.9,0.8,3.1,1.3c-1.1,0.3-2.3,0.4-3.4,0.3c-1.2-0.1-2.3-0.3-3.3-0.5
					c-1.1-0.3-2.2-0.6-3.2-0.9s-2.1-0.7-3-0.9l-0.8-0.2l-0.4-0.1l-0.3-0.1c-0.5-0.2-1-0.3-1.5-0.4c-1-0.3-2-0.4-3-0.6
					s-1.9-0.2-2.8,0.1c-0.4,0.1-0.8,0.3-1.1,0.7C-183.7,380.2-184,380.7-184.2,381.2L-184.2,381.2L-184.2,381.2z"/>
			</g>
		</g>
	</g>
</g>
<g class="st31">
	<g>
		<g>
			<g>
				<defs>
					<path id="SVGID_28_" d="M-188.2,402.5c-3.8-3.5,3.5-7.9,5.2-8.9c1.4-0.9,3.3-1.8,4.9-2.5c2.9-1.3,5.7-2.6,7.5-4.4l-3.8-3.8
						c-1.2,1.2-3.6,2.3-6,3.3c-2.3,1.1-4.8,2.2-6.7,3.6c-2.6,1.9-3.9,4.3-3.9,6.9C-190.9,398.9-190,400.8-188.2,402.5L-188.2,402.5z
						"/>
				</defs>
				<clipPath id="SVGID_29_">
					<use xlink:href="#SVGID_28_"  style="overflow:visible;"/>
				</clipPath>
			</g>
		</g>
	</g>
	<g>
		<g>
			<g>
				<defs>
					<path id="SVGID_30_" d="M-188.2,402.5c-3.8-3.5,3.5-7.9,5.2-8.9c1.4-0.9,3.3-1.8,4.9-2.5c2.9-1.3,5.7-2.6,7.5-4.4l-3.8-3.8
						c-1.2,1.2-3.6,2.3-6,3.3c-2.3,1.1-4.8,2.2-6.7,3.6c-2.6,1.9-3.9,4.3-3.9,6.9C-190.9,398.9-190,400.8-188.2,402.5L-188.2,402.5z
						"/>
				</defs>
				<use xlink:href="#SVGID_30_"  style="overflow:visible;fill:#8C99E0;"/>
				<clipPath id="SVGID_31_">
					<use xlink:href="#SVGID_30_"  style="overflow:visible;"/>
				</clipPath>
				<g class="st32">
					<path class="st13" d="M-188.2,402.5L-188.2,402.5L-188.2,402.5c-0.6-0.3-1.1-0.7-1.4-1.3c-0.3-0.6-0.4-1.3-0.4-2
						c0.1-0.7,0.3-1.3,0.6-1.9s0.7-1.1,1.1-1.6c0.8-0.9,1.7-1.8,2.6-2.4c0.5-0.3,0.9-0.7,1.4-1l0.4-0.3l0.3-0.2l0.8-0.4
						c2-1.1,4.1-1.8,6.2-2.6c1-0.3,2-0.7,3.1-1.1c1-0.3,2-0.8,3-1.3c-0.5,1-1.3,1.9-2.2,2.7c-0.8,0.8-1.8,1.4-2.8,2
						c-0.9,0.6-1.9,1.1-2.9,1.7c-0.9,0.5-1.9,1-2.8,1.5l-0.7,0.3l-0.4,0.3l-0.3,0.2c-0.4,0.3-0.9,0.5-1.3,0.8
						c-0.9,0.5-1.8,1.1-2.5,1.7c-0.8,0.6-1.5,1.3-1.9,2c-0.3,0.3-0.3,0.8-0.3,1.3C-188.7,401.5-188.5,402-188.2,402.5L-188.2,402.5
						L-188.2,402.5z"/>
				</g>
			</g>
		</g>
	</g>
	<g>
		<g>
			<g>
				<defs>
					<path id="SVGID_32_" d="M-188.2,402.5c-3.8-3.5,3.5-7.9,5.2-8.9c1.4-0.9,3.3-1.8,4.9-2.5c2.9-1.3,5.7-2.6,7.5-4.4l-3.8-3.8
						c-1.2,1.2-3.6,2.3-6,3.3c-2.3,1.1-4.8,2.2-6.7,3.6c-2.6,1.9-3.9,4.3-3.9,6.9C-190.9,398.9-190,400.8-188.2,402.5L-188.2,402.5z
						"/>
				</defs>
				<clipPath id="SVGID_33_">
					<use xlink:href="#SVGID_32_"  style="overflow:visible;"/>
				</clipPath>
			</g>
		</g>
	</g>
</g>
<g class="st33">
	<g>
		<g>
			<defs>
				<path id="SVGID_34_" d="M-176,420.3c-5.2,0.3-3.1-8-2.6-9.9c0.3-1.7,1.1-3.5,1.8-5.3c1.1-3,2.2-5.8,2.2-8.4h-5.3
					c0,1.7-0.9,4.2-1.8,6.6c-0.9,2.4-1.8,4.9-2.2,7.3c-0.5,3.3,0.2,5.8,2,7.6C-180.5,419.8-178.5,420.5-176,420.3L-176,420.3z"/>
			</defs>
			<clipPath id="SVGID_35_">
				<use xlink:href="#SVGID_34_"  style="overflow:visible;"/>
			</clipPath>
			<g class="st34">
				
					<linearGradient id="SVGID_36_" gradientUnits="userSpaceOnUse" x1="-177.4641" y1="419.4443" x2="-177.4641" y2="394.1138" gradientTransform="matrix(1 0 0 1 0 2.6)">
					<stop  offset="0" style="stop-color:#FFFFFF"/>
					<stop  offset="1" style="stop-color:#FFFFFF;stop-opacity:0"/>
				</linearGradient>
				<path class="st35" d="M-176,420.4L-176,420.4L-176,420.4c-0.6,0.2-1.3,0.3-1.8,0.1c-0.7-0.2-1.3-0.6-1.7-1.2s-0.7-1.2-0.9-1.8
					c-0.2-0.6-0.3-1.3-0.3-1.8c-0.1-1.3-0.1-2.4,0.1-3.6c0.1-0.6,0.2-1.2,0.3-1.8l0.1-0.4l0.1-0.3l0.3-0.8c0.7-2.3,1.6-4.3,2.6-6.2
					c0.5-1,0.9-1.9,1.4-2.9s0.8-1.9,1.3-3.1c0.3,1.1,0.4,2.3,0.3,3.4c-0.1,1.2-0.3,2.3-0.5,3.3c-0.3,1.1-0.6,2.2-0.9,3.2
					c-0.3,1-0.7,2.1-0.9,3l-0.2,0.8l-0.1,0.4l-0.1,0.3c-0.2,0.5-0.3,1-0.4,1.5c-0.3,1-0.4,2-0.6,3c-0.2,1-0.2,1.9,0.1,2.8
					c0.1,0.4,0.3,0.8,0.7,1.1C-177,419.9-176.5,420.2-176,420.4L-176,420.4L-176,420.4z"/>
			</g>
		</g>
	</g>
</g>
<g class="st36">
	<g>
		<g>
			<g>
				<defs>
					<path id="SVGID_37_" d="M-154.7,424.4c-3.5,3.8-7.9-3.5-8.9-5.2c-0.9-1.4-1.8-3.3-2.5-4.9c-1.3-2.9-2.6-5.7-4.4-7.5l-3.8,3.8
						c1.2,1.2,2.3,3.6,3.3,6c1.1,2.3,2.2,4.8,3.6,6.7c1.9,2.6,4.3,3.9,6.9,3.9C-158.3,427.1-156.4,426.2-154.7,424.4L-154.7,424.4z"
						/>
				</defs>
				<clipPath id="SVGID_38_">
					<use xlink:href="#SVGID_37_"  style="overflow:visible;"/>
				</clipPath>
			</g>
		</g>
	</g>
	<g>
		<g>
			<g>
				<defs>
					<path id="SVGID_39_" d="M-154.7,424.4c-3.5,3.8-7.9-3.5-8.9-5.2c-0.9-1.4-1.8-3.3-2.5-4.9c-1.3-2.9-2.6-5.7-4.4-7.5l-3.8,3.8
						c1.2,1.2,2.3,3.6,3.3,6c1.1,2.3,2.2,4.8,3.6,6.7c1.9,2.6,4.3,3.9,6.9,3.9C-158.3,427.1-156.4,426.2-154.7,424.4L-154.7,424.4z"
						/>
				</defs>
				<use xlink:href="#SVGID_39_"  style="overflow:visible;fill:#8C99E0;"/>
				<clipPath id="SVGID_41_">
					<use xlink:href="#SVGID_39_"  style="overflow:visible;"/>
				</clipPath>
				<g class="st37">
					<path class="st13" d="M-154.7,424.4L-154.7,424.4L-154.7,424.4c-0.3,0.6-0.7,1.1-1.3,1.4s-1.3,0.4-2,0.4
						c-0.7-0.1-1.3-0.3-1.9-0.6c-0.6-0.3-1.1-0.7-1.6-1.1c-0.9-0.8-1.8-1.7-2.4-2.6c-0.3-0.5-0.7-0.9-1-1.4l-0.3-0.4l-0.2-0.3
						l-0.4-0.8c-1.1-2-1.8-4.1-2.6-6.2c-0.3-1-0.7-2-1.1-3.1c-0.3-1-0.8-2-1.3-3c1,0.5,1.9,1.3,2.7,2.2c0.8,0.8,1.4,1.8,2,2.8
						c0.6,0.9,1.1,1.9,1.7,2.9c0.5,0.9,1,1.9,1.5,2.8l0.3,0.7l0.3,0.4l0.2,0.3c0.3,0.4,0.5,0.9,0.8,1.3c0.5,0.9,1.1,1.8,1.7,2.5
						c0.6,0.8,1.3,1.5,2,1.9c0.3,0.3,0.8,0.3,1.3,0.3C-155.7,424.9-155.2,424.7-154.7,424.4L-154.7,424.4L-154.7,424.4z"/>
				</g>
			</g>
		</g>
	</g>
	<g>
		<g>
			<g>
				<defs>
					<path id="SVGID_42_" d="M-154.7,424.4c-3.5,3.8-7.9-3.5-8.9-5.2c-0.9-1.4-1.8-3.3-2.5-4.9c-1.3-2.9-2.6-5.7-4.4-7.5l-3.8,3.8
						c1.2,1.2,2.3,3.6,3.3,6c1.1,2.3,2.2,4.8,3.6,6.7c1.9,2.6,4.3,3.9,6.9,3.9C-158.3,427.1-156.4,426.2-154.7,424.4L-154.7,424.4z"
						/>
				</defs>
				<clipPath id="SVGID_43_">
					<use xlink:href="#SVGID_42_"  style="overflow:visible;"/>
				</clipPath>
			</g>
		</g>
	</g>
</g>
<g class="st38">
	<g>
		<g>
			<defs>
				<path id="SVGID_44_" d="M-136.9,412.2c0.3,5.2-8,3.1-9.9,2.6c-1.7-0.3-3.5-1.1-5.3-1.8c-3-1.1-5.8-2.2-8.4-2.2v5.3
					c1.7,0,4.2,0.9,6.6,1.8s4.9,1.8,7.3,2.2c3.3,0.5,5.8-0.2,7.6-2C-137.4,416.7-136.7,414.7-136.9,412.2L-136.9,412.2z"/>
			</defs>
			<clipPath id="SVGID_45_">
				<use xlink:href="#SVGID_44_"  style="overflow:visible;"/>
			</clipPath>
			<g class="st39">
				
					<linearGradient id="SVGID_46_" gradientUnits="userSpaceOnUse" x1="-135.1555" y1="411.0641" x2="-160.4863" y2="411.0641" gradientTransform="matrix(1 0 0 1 0 2.6)">
					<stop  offset="0" style="stop-color:#FFFFFF"/>
					<stop  offset="1" style="stop-color:#FFFFFF;stop-opacity:0"/>
				</linearGradient>
				<path class="st40" d="M-136.8,412.2L-136.8,412.2L-136.8,412.2c0.2,0.6,0.3,1.3,0.1,1.8c-0.2,0.7-0.6,1.3-1.2,1.7
					s-1.2,0.7-1.8,0.9c-0.6,0.2-1.3,0.3-1.8,0.3c-1.3,0.1-2.4,0.1-3.6-0.1c-0.6-0.1-1.2-0.2-1.8-0.3l-0.4-0.1l-0.3-0.1l-0.8-0.3
					c-2.3-0.7-4.3-1.6-6.2-2.6c-1-0.5-1.9-0.9-2.9-1.4s-1.9-0.8-3.1-1.3c1.1-0.3,2.3-0.4,3.4-0.3c1.2,0.1,2.3,0.3,3.3,0.5
					c1.1,0.3,2.2,0.6,3.2,0.9s2.1,0.7,3,0.9l0.8,0.2l0.4,0.1l0.3,0.1c0.5,0.2,1,0.3,1.5,0.4c1,0.3,2,0.4,3,0.6s1.9,0.2,2.8-0.1
					c0.4-0.1,0.8-0.3,1.1-0.7C-137.3,413.2-137,412.7-136.8,412.2L-136.8,412.2L-136.8,412.2z"/>
			</g>
		</g>
	</g>
</g>
<g class="st36">
	<g>
		<g>
			<g>
				<g>
					<defs>
						<path id="SVGID_47_" d="M-132.8,390.9c3.8,3.5-3.5,7.9-5.2,8.9c-1.4,0.9-3.3,1.8-4.9,2.5c-2.9,1.3-5.7,2.6-7.5,4.4l3.8,3.8
							c1.2-1.2,3.6-2.3,6-3.3c2.3-1.1,4.8-2.2,6.7-3.6c2.6-1.9,3.9-4.3,3.9-6.9C-130.1,394.5-131,392.6-132.8,390.9L-132.8,390.9z"
							/>
					</defs>
					<clipPath id="SVGID_48_">
						<use xlink:href="#SVGID_47_"  style="overflow:visible;"/>
					</clipPath>
				</g>
			</g>
		</g>
	</g>
	<g>
		<g>
			<g>
				<g>
					<path id="SVGID_9_" class="st13" d="M-132.8,390.9c3.8,3.5-3.5,7.9-5.2,8.9c-1.4,0.9-3.3,1.8-4.9,2.5c-2.9,1.3-5.7,2.6-7.5,4.4
						l3.8,3.8c1.2-1.2,3.6-2.3,6-3.3c2.3-1.1,4.8-2.2,6.7-3.6c2.6-1.9,3.9-4.3,3.9-6.9C-130.1,394.5-131,392.6-132.8,390.9
						L-132.8,390.9z"/>
				</g>
				<g>
					<defs>
						<path id="SVGID_50_" d="M-132.8,390.9c3.8,3.5-3.5,7.9-5.2,8.9c-1.4,0.9-3.3,1.8-4.9,2.5c-2.9,1.3-5.7,2.6-7.5,4.4l3.8,3.8
							c1.2-1.2,3.6-2.3,6-3.3c2.3-1.1,4.8-2.2,6.7-3.6c2.6-1.9,3.9-4.3,3.9-6.9C-130.1,394.5-131,392.6-132.8,390.9L-132.8,390.9z"
							/>
					</defs>
					<use xlink:href="#SVGID_50_"  style="overflow:visible;fill:#8C99E0;"/>
					<clipPath id="SVGID_51_">
						<use xlink:href="#SVGID_50_"  style="overflow:visible;"/>
					</clipPath>
					<g class="st41">
						<path class="st13" d="M-132.8,390.9L-132.8,390.9L-132.8,390.9c0.6,0.3,1.1,0.7,1.4,1.3c0.3,0.6,0.4,1.3,0.4,2
							c-0.1,0.7-0.3,1.3-0.6,1.9s-0.7,1.1-1.1,1.6c-0.8,0.9-1.7,1.8-2.6,2.4c-0.5,0.3-0.9,0.7-1.4,1l-0.4,0.3l-0.3,0.2l-0.8,0.4
							c-2,1.1-4.1,1.8-6.2,2.6c-1,0.3-2,0.7-3.1,1.1c-1,0.3-2,0.8-3,1.3c0.5-1,1.3-1.9,2.2-2.7c0.8-0.8,1.8-1.4,2.8-2
							c0.9-0.6,1.9-1.1,2.9-1.7c0.9-0.5,1.9-1,2.8-1.5l0.7-0.3l0.4-0.3l0.3-0.2c0.4-0.3,0.9-0.5,1.3-0.8c0.9-0.5,1.8-1.1,2.5-1.7
							c0.8-0.6,1.5-1.3,1.9-2c0.3-0.3,0.3-0.8,0.3-1.3C-132.3,391.9-132.5,391.4-132.8,390.9L-132.8,390.9L-132.8,390.9z"/>
					</g>
				</g>
			</g>
		</g>
	</g>
	<g>
		<g>
			<g>
				<g>
					<defs>
						<path id="SVGID_52_" d="M-132.8,390.9c3.8,3.5-3.5,7.9-5.2,8.9c-1.4,0.9-3.3,1.8-4.9,2.5c-2.9,1.3-5.7,2.6-7.5,4.4l3.8,3.8
							c1.2-1.2,3.6-2.3,6-3.3c2.3-1.1,4.8-2.2,6.7-3.6c2.6-1.9,3.9-4.3,3.9-6.9C-130.1,394.5-131,392.6-132.8,390.9L-132.8,390.9z"
							/>
					</defs>
					<clipPath id="SVGID_53_">
						<use xlink:href="#SVGID_52_"  style="overflow:visible;"/>
					</clipPath>
				</g>
			</g>
		</g>
	</g>
</g>
<g class="st33">
	<g>
		<g>
			<defs>
				<path id="SVGID_54_" d="M-145,373.1c5.2-0.3,3.1,8,2.6,9.9c-0.3,1.7-1.1,3.5-1.8,5.3c-1.1,3-2.2,5.8-2.2,8.4h5.3
					c0-1.7,0.9-4.2,1.8-6.6c0.9-2.4,1.8-4.9,2.2-7.3c0.5-3.3-0.2-5.8-2-7.6C-140.5,373.6-142.5,372.9-145,373.1L-145,373.1z"/>
			</defs>
			<clipPath id="SVGID_55_">
				<use xlink:href="#SVGID_54_"  style="overflow:visible;"/>
			</clipPath>
			<g class="st42">
				
					<linearGradient id="SVGID_56_" gradientUnits="userSpaceOnUse" x1="-143.5359" y1="368.7556" x2="-143.5359" y2="394.0862" gradientTransform="matrix(1 0 0 1 0 2.6)">
					<stop  offset="0" style="stop-color:#FFFFFF"/>
					<stop  offset="1" style="stop-color:#FFFFFF;stop-opacity:0"/>
				</linearGradient>
				<path class="st43" d="M-145,373L-145,373L-145,373c0.6-0.2,1.3-0.3,1.8-0.1c0.7,0.2,1.3,0.6,1.7,1.2s0.7,1.2,0.9,1.8
					c0.2,0.6,0.3,1.3,0.3,1.8c0.1,1.3,0.1,2.4-0.1,3.6c-0.1,0.6-0.2,1.2-0.3,1.8l-0.1,0.4l-0.1,0.3l-0.3,0.8
					c-0.7,2.3-1.6,4.3-2.6,6.2c-0.5,1-0.9,1.9-1.4,2.9s-0.8,1.9-1.3,3.1c-0.3-1.1-0.4-2.3-0.3-3.4c0.1-1.2,0.3-2.3,0.5-3.3
					c0.3-1.1,0.6-2.2,0.9-3.2c0.3-1,0.7-2.1,0.9-3l0.2-0.8l0.1-0.4l0.1-0.3c0.2-0.5,0.3-1,0.4-1.5c0.3-1,0.4-2,0.6-3
					c0.2-1,0.2-1.9-0.1-2.8c-0.1-0.4-0.3-0.8-0.7-1.1C-144,373.5-144.5,373.2-145,373L-145,373L-145,373z"/>
			</g>
		</g>
	</g>
</g>
<g class="st31">
	<g>
		<g>
			<g>
				<g>
					<defs>
						<path id="SVGID_57_" d="M-166.3,369c3.5-3.8,7.9,3.5,8.9,5.2c0.9,1.4,1.8,3.3,2.5,4.9c1.3,2.9,2.6,5.7,4.4,7.5l3.8-3.8
							c-1.2-1.2-2.3-3.6-3.3-6c-1.1-2.3-2.2-4.8-3.6-6.7c-1.9-2.6-4.3-3.9-6.9-3.9C-162.7,366.3-164.6,367.2-166.3,369L-166.3,369z"
							/>
					</defs>
					<clipPath id="SVGID_58_">
						<use xlink:href="#SVGID_57_"  style="overflow:visible;"/>
					</clipPath>
				</g>
			</g>
		</g>
	</g>
	<g>
		<g>
			<g>
				<g>
					<path id="SVGID_8_" class="st13" d="M-166.3,369c3.5-3.8,7.9,3.5,8.9,5.2c0.9,1.4,1.8,3.3,2.5,4.9c1.3,2.9,2.6,5.7,4.4,7.5
						l3.8-3.8c-1.2-1.2-2.3-3.6-3.3-6c-1.1-2.3-2.2-4.8-3.6-6.7c-1.9-2.6-4.3-3.9-6.9-3.9C-162.7,366.3-164.6,367.2-166.3,369
						L-166.3,369z"/>
				</g>
				<g>
					<defs>
						<path id="SVGID_59_" d="M-166.3,369c3.5-3.8,7.9,3.5,8.9,5.2c0.9,1.4,1.8,3.3,2.5,4.9c1.3,2.9,2.6,5.7,4.4,7.5l3.8-3.8
							c-1.2-1.2-2.3-3.6-3.3-6c-1.1-2.3-2.2-4.8-3.6-6.7c-1.9-2.6-4.3-3.9-6.9-3.9C-162.7,366.3-164.6,367.2-166.3,369L-166.3,369z"
							/>
					</defs>
					<use xlink:href="#SVGID_59_"  style="overflow:visible;fill:#8C99E0;"/>
					<clipPath id="SVGID_60_">
						<use xlink:href="#SVGID_59_"  style="overflow:visible;"/>
					</clipPath>
					<g class="st44">
						<path class="st13" d="M-166.3,369L-166.3,369L-166.3,369c0.3-0.6,0.7-1.1,1.3-1.4s1.3-0.4,2-0.4c0.7,0.1,1.3,0.3,1.9,0.6
							c0.6,0.3,1.1,0.7,1.6,1.1c0.9,0.8,1.8,1.7,2.4,2.6c0.3,0.5,0.7,0.9,1,1.4l0.3,0.4l0.2,0.3l0.4,0.8c1.1,2,1.8,4.1,2.6,6.2
							c0.3,1,0.7,2,1.1,3.1c0.3,1,0.8,2,1.3,3c-1-0.5-1.9-1.3-2.7-2.2c-0.8-0.8-1.4-1.8-2-2.8c-0.6-0.9-1.1-1.9-1.7-2.9
							c-0.5-0.9-1-1.9-1.5-2.8l-0.3-0.7l-0.3-0.4l-0.2-0.3c-0.3-0.4-0.5-0.9-0.8-1.3c-0.5-0.9-1.1-1.8-1.7-2.5
							c-0.6-0.8-1.3-1.5-2-1.9c-0.3-0.3-0.8-0.3-1.3-0.3C-165.3,368.5-165.8,368.7-166.3,369L-166.3,369L-166.3,369z"/>
					</g>
				</g>
			</g>
		</g>
	</g>
	<g>
		<g>
			<g>
				<g>
					<defs>
						<path id="SVGID_61_" d="M-166.3,369c3.5-3.8,7.9,3.5,8.9,5.2c0.9,1.4,1.8,3.3,2.5,4.9c1.3,2.9,2.6,5.7,4.4,7.5l3.8-3.8
							c-1.2-1.2-2.3-3.6-3.3-6c-1.1-2.3-2.2-4.8-3.6-6.7c-1.9-2.6-4.3-3.9-6.9-3.9C-162.7,366.3-164.6,367.2-166.3,369L-166.3,369z"
							/>
					</defs>
					<clipPath id="SVGID_62_">
						<use xlink:href="#SVGID_61_"  style="overflow:visible;"/>
					</clipPath>
				</g>
			</g>
		</g>
	</g>
</g>
<g>
	<g>
		<path class="st45" d="M-114.1,394.5c-1.4-0.7-2.3-1.8-2.6-3.4s-0.5-4.2-0.5-8c0-3.8,0.1-6.4,0.5-8c0.4-1.6,1.2-2.7,2.6-3.4
			c1.4-0.7,3.6-0.9,6.9-0.9c3.2,0,5.5,0.3,6.9,0.9c1.4,0.7,2.3,1.8,2.7,3.4s0.5,4.3,0.5,8s-0.1,6.4-0.5,8c-0.4,1.6-1.2,2.7-2.7,3.4
			c-1.4,0.7-3.6,0.9-6.9,0.9C-110.4,395.4-112.6,395.1-114.1,394.5z M-102.7,391.5c0.8-0.3,1.2-0.9,1.5-2c0.3-1.1,0.3-3.2,0.3-6.4
			s-0.1-5.1-0.3-6.4c-0.3-1.1-0.7-1.8-1.5-2c-0.8-0.3-2.2-0.4-4.3-0.4c-2.2,0-3.6,0.1-4.3,0.4c-0.7,0.3-1.2,0.9-1.5,2
			c-0.3,1.1-0.3,3.2-0.3,6.4s0.1,5.1,0.3,6.4c0.3,1.1,0.7,1.8,1.5,2c0.8,0.3,2.2,0.4,4.3,0.4C-104.9,391.9-103.6,391.8-102.7,391.5z
			"/>
		<path class="st45" d="M-73.7,395.1l-3.6-9.2h-0.1h-6.9v9.2h-3.9v-24.2h11.2c2,0,3.5,0.3,4.5,0.9c0.9,0.7,1.8,1.5,2,2.4
			c0.4,1.1,0.5,2.4,0.5,4.2c0,1.6-0.3,3.1-0.7,4.3c-0.5,1.2-1.5,2.2-2.8,2.7l3.9,9.6L-73.7,395.1L-73.7,395.1z M-75.4,382.2
			c0.7-0.3,1.1-0.7,1.2-1.2s0.3-1.4,0.3-2.4c0-1.1-0.1-1.9-0.3-2.4s-0.5-0.9-1.2-1.1c-0.7-0.3-1.6-0.4-3.1-0.4h-5.8v7.8h5.7
			C-77.1,382.4-76.1,382.3-75.4,382.2z"/>
		<path class="st45" d="M-61.1,395.1v-24.2H-45v3.6h-12.2v6.6h10.5v3.6h-10.5v6.8H-45v3.6h-16.1V395.1z"/>
		<path class="st45" d="M-34.2,394.5c-1.4-0.7-2.3-1.8-2.6-3.4s-0.5-4.2-0.5-8c0-3.8,0.1-6.4,0.5-8c0.4-1.6,1.2-2.7,2.6-3.4
			c1.4-0.7,3.6-0.9,6.9-0.9c3.2,0,5.5,0.3,6.9,0.9c1.4,0.7,2.3,1.8,2.7,3.4s0.5,4.3,0.5,8s-0.1,6.4-0.5,8c-0.4,1.6-1.2,2.7-2.7,3.4
			c-1.4,0.7-3.6,0.9-6.9,0.9S-32.9,395.1-34.2,394.5z M-23,391.5c0.8-0.3,1.2-0.9,1.5-2c0.3-1.1,0.3-3.2,0.3-6.4s-0.1-5.1-0.3-6.4
			c-0.3-1.1-0.7-1.8-1.5-2c-0.8-0.3-2.2-0.4-4.3-0.4s-3.6,0.1-4.3,0.4c-0.7,0.3-1.2,0.9-1.5,2c-0.3,1.1-0.3,3.2-0.3,6.4
			s0.1,5.1,0.3,6.4c0.3,1.1,0.7,1.8,1.5,2c0.8,0.3,2.2,0.4,4.3,0.4S-23.8,391.8-23,391.5z"/>
	</g>
</g>
<g>
	<path class="st46" d="M-117,406h4.4c1.9,0,3.3,0.2,4,0.5s1.3,1,1.5,1.8s0.3,2.4,0.3,4.5s-0.1,3.7-0.3,4.5s-0.7,1.5-1.5,1.8
		s-2.1,0.5-4,0.5h-4.4V406z M-112.9,418.2c1.6,0,2.6-0.1,3.1-0.3c0.5-0.2,0.9-0.6,1-1.2c0.2-0.7,0.2-1.9,0.2-3.8
		c0-1.9-0.1-3.1-0.3-3.8c-0.2-0.7-0.5-1.1-1.1-1.3c-0.5-0.2-1.6-0.3-3.1-0.3h-2.4v10.6H-112.9z"/>
	<path class="st46" d="M-101.9,419.3c-0.5-0.4-0.8-1.2-0.8-2.3c0-0.8,0.1-1.4,0.3-1.8c0.2-0.4,0.5-0.8,1-1c0.4-0.2,1.1-0.3,1.9-0.3
		c0.4,0,1.7,0,3.8,0.1v-0.6c0-0.8-0.1-1.4-0.2-1.7c-0.2-0.3-0.4-0.5-0.8-0.6c-0.4-0.1-1.1-0.1-2.1-0.1c-0.4,0-1,0-1.6,0.1
		c-0.6,0-1.1,0.1-1.5,0.1v-1.4c1.1-0.2,2.3-0.3,3.7-0.3c1.2,0,2.1,0.1,2.7,0.4c0.6,0.2,1,0.6,1.2,1.2c0.2,0.6,0.3,1.4,0.3,2.4v6.4
		h-1.5l-0.1-1.4h-0.1c-0.3,0.6-0.7,1.1-1.4,1.3c-0.6,0.2-1.4,0.3-2.2,0.3C-100.5,420-101.4,419.7-101.9,419.3z M-97.1,418.3
		c0.4-0.1,0.7-0.4,0.9-0.7c0.3-0.5,0.4-1.1,0.4-2v-0.5h-3.4c-0.6,0-1,0-1.2,0.1c-0.3,0.1-0.4,0.2-0.6,0.5s-0.2,0.6-0.2,1.1
		c0,0.5,0.1,0.8,0.2,1.1c0.1,0.2,0.3,0.4,0.7,0.5s0.8,0.1,1.5,0.1C-98.1,418.5-97.5,418.4-97.1,418.3z"/>
	<path class="st46" d="M-87.8,419.9c-0.7-0.1-1.3-0.1-1.8-0.2v-1.4c1.3,0.1,2.5,0.2,3.6,0.2c0.7,0,1.2,0,1.5-0.1
		c0.3-0.1,0.5-0.2,0.6-0.5c0.1-0.2,0.1-0.5,0.1-0.9s0-0.7-0.1-0.9c-0.1-0.2-0.2-0.3-0.4-0.4c-0.2-0.1-0.4-0.1-0.8-0.2l-2.7-0.3
		c-0.6-0.1-1.1-0.2-1.4-0.4c-0.3-0.2-0.6-0.5-0.7-0.9c-0.1-0.4-0.2-0.9-0.2-1.5c0-0.9,0.2-1.5,0.5-1.9c0.3-0.4,0.7-0.7,1.3-0.9
		c0.6-0.1,1.3-0.2,2.2-0.2c0.5,0,1.1,0,1.7,0.1c0.6,0.1,1.1,0.1,1.5,0.2v1.4c-1-0.2-2.1-0.2-3.2-0.2c-0.6,0-1.1,0-1.4,0.1
		c-0.3,0.1-0.6,0.2-0.7,0.4c-0.2,0.2-0.3,0.5-0.3,1c0,0.4,0,0.7,0.1,0.8c0.1,0.2,0.2,0.3,0.3,0.4c0.2,0.1,0.4,0.1,0.8,0.2l2.8,0.3
		c0.6,0.1,1,0.2,1.3,0.3c0.3,0.2,0.5,0.4,0.7,0.8s0.2,1,0.2,1.7c0,0.8-0.1,1.5-0.4,1.9c-0.3,0.4-0.7,0.7-1.2,0.9
		c-0.5,0.2-1.2,0.2-2.1,0.2C-86.4,420-87.1,419.9-87.8,419.9z"/>
	<path class="st46" d="M-71,414.1c0-0.9-0.1-1.6-0.2-2c-0.1-0.4-0.3-0.7-0.7-0.8c-0.3-0.1-0.9-0.2-1.7-0.2c-0.8,0-1.5,0.1-1.8,0.4
		c-0.4,0.3-0.6,0.6-0.7,1.1c-0.1,0.5-0.2,1.1-0.2,2v5.3h-1.6v-14.9h1.6v6h0.1c0.2-0.5,0.6-0.8,1.1-1.1s1.3-0.4,2.2-0.4
		c1,0,1.7,0.1,2.2,0.4s0.8,0.7,1,1.2c0.2,0.6,0.3,1.3,0.3,2.3v6.4H-71V414.1z"/>
	<path class="st46" d="M-61.6,419.6c-0.6-0.2-1-0.6-1.3-1.3H-63l-0.1,1.4h-1.4v-14.9h1.6v5.9h0.1c0.3-0.5,0.7-0.9,1.2-1.1
		c0.5-0.2,1.2-0.3,2.1-0.3c1,0,1.8,0.2,2.3,0.5c0.5,0.3,0.9,0.8,1.1,1.6c0.2,0.7,0.3,1.8,0.3,3.2s-0.1,2.5-0.3,3.2
		c-0.2,0.7-0.6,1.3-1.1,1.6s-1.3,0.5-2.3,0.5C-60.3,420-61,419.8-61.6,419.6z M-58.3,418.2c0.4-0.2,0.6-0.5,0.7-1
		c0.1-0.5,0.2-1.3,0.2-2.5c0-1.1-0.1-2-0.2-2.5c-0.1-0.5-0.4-0.8-0.7-1c-0.4-0.2-1-0.3-1.9-0.3c-0.7,0-1.2,0.1-1.6,0.2
		s-0.7,0.4-0.8,0.7c-0.1,0.3-0.2,0.6-0.3,1.1c0,0.4-0.1,1-0.1,1.6c0,0.7,0,1.3,0.1,1.7c0,0.4,0.1,0.7,0.3,1c0.2,0.3,0.5,0.6,0.8,0.8
		c0.4,0.2,0.9,0.2,1.6,0.2C-59.3,418.4-58.7,418.3-58.3,418.2z"/>
	<path class="st46" d="M-50.3,419.5c-0.6-0.3-1-0.8-1.2-1.5c-0.2-0.7-0.3-1.8-0.3-3.4c0-1.6,0.1-2.7,0.3-3.4s0.6-1.2,1.2-1.5
		c0.6-0.3,1.6-0.4,3.1-0.4c1.4,0,2.4,0.1,3,0.4c0.6,0.3,1,0.8,1.2,1.5c0.2,0.7,0.3,1.8,0.3,3.4c0,1.6-0.1,2.7-0.3,3.4
		c-0.2,0.7-0.6,1.2-1.2,1.5c-0.6,0.3-1.6,0.4-3,0.4C-48.7,420-49.7,419.8-50.3,419.5z M-45.2,418.2c0.4-0.2,0.6-0.5,0.7-1
		c0.1-0.5,0.1-1.3,0.1-2.6c0-1.3,0-2.1-0.1-2.6c-0.1-0.5-0.3-0.8-0.7-1c-0.4-0.2-1-0.3-2-0.3c-1,0-1.7,0.1-2,0.3
		c-0.4,0.2-0.6,0.5-0.7,1s-0.1,1.3-0.1,2.6c0,1.3,0,2.1,0.1,2.6s0.3,0.8,0.7,1c0.4,0.2,1.1,0.3,2,0.3
		C-46.3,418.5-45.6,418.4-45.2,418.2z"/>
	<path class="st46" d="M-38.2,419.3c-0.5-0.4-0.8-1.2-0.8-2.3c0-0.8,0.1-1.4,0.3-1.8c0.2-0.4,0.5-0.8,1-1c0.4-0.2,1.1-0.3,1.9-0.3
		c0.4,0,1.7,0,3.8,0.1v-0.6c0-0.8-0.1-1.4-0.2-1.7c-0.2-0.3-0.4-0.5-0.8-0.6c-0.4-0.1-1.1-0.1-2.1-0.1c-0.4,0-1,0-1.6,0.1
		s-1.2,0.1-1.5,0.1v-1.4c1.1-0.2,2.3-0.3,3.7-0.3c1.2,0,2.1,0.1,2.7,0.4c0.6,0.2,1,0.6,1.2,1.2c0.2,0.6,0.3,1.4,0.3,2.4v6.4h-1.5
		l-0.1-1.4h-0.1c-0.3,0.6-0.7,1.1-1.3,1.3c-0.6,0.2-1.4,0.3-2.2,0.3C-36.8,420-37.7,419.7-38.2,419.3z M-33.4,418.3
		c0.4-0.1,0.7-0.4,0.9-0.7c0.3-0.5,0.4-1.1,0.4-2v-0.5h-3.4c-0.6,0-1,0-1.2,0.1c-0.3,0.1-0.4,0.2-0.5,0.5c-0.1,0.2-0.2,0.6-0.2,1.1
		c0,0.5,0.1,0.8,0.2,1.1c0.1,0.2,0.3,0.4,0.7,0.5s0.8,0.1,1.5,0.1C-34.4,418.5-33.8,418.4-33.4,418.3z"/>
	<path class="st46" d="M-25.6,409.6h1.4l0.1,1.9h0.1c0.2-0.8,0.6-1.4,1.2-1.7c0.6-0.3,1.3-0.5,2.2-0.5v1.7c-0.9,0-1.6,0.1-2.1,0.4
		s-0.8,0.7-1,1.3s-0.3,1.4-0.3,2.4v4.6h-1.6V409.6z"/>
	<path class="st46" d="M-15.9,419.5c-0.5-0.3-0.9-0.8-1.1-1.6s-0.3-1.8-0.3-3.2c0-1.4,0.1-2.5,0.3-3.2c0.2-0.7,0.6-1.3,1.1-1.6
		c0.5-0.3,1.3-0.5,2.3-0.5c0.9,0,1.6,0.1,2.1,0.3c0.5,0.2,0.9,0.6,1.2,1.1h0.1v-5.9h1.6v14.9H-10l-0.1-1.4h-0.1
		c-0.3,0.6-0.7,1-1.3,1.3s-1.3,0.3-2.1,0.3C-14.6,420-15.4,419.8-15.9,419.5z M-11.3,418.1c0.4-0.2,0.7-0.5,0.8-0.8
		c0.1-0.3,0.2-0.7,0.3-1.1c0-0.4,0-0.9,0-1.6c0-0.6,0-1-0.1-1.4c0-0.4-0.1-0.7-0.2-1c-0.2-0.4-0.4-0.7-0.8-0.9
		c-0.4-0.2-1-0.3-1.7-0.3c-0.8,0-1.4,0.1-1.8,0.3c-0.4,0.2-0.6,0.5-0.7,1c-0.1,0.5-0.2,1.3-0.2,2.4c0,1.2,0.1,2,0.2,2.5
		c0.1,0.5,0.4,0.8,0.7,1c0.4,0.2,1,0.2,1.9,0.2C-12.3,418.4-11.7,418.3-11.3,418.1z"/>
</g>
</svg>
